<?xml version="1.0" encoding="UTF-8"?>
<svg version="1.1" xmlns="http://www.w3.org/2000/svg" width="5608" height="5941">
<path d="M0 0 C0.66 0 1.32 0 2 0 C1.99666908 1.81970055 1.99666908 1.81970055 1.99327087 3.67616272 C1.76477472 87.34439937 1.76477472 87.34439937 3 171 C3.0438382 172.86072144 3.0438382 172.86072144 3.08856201 174.7590332 C5.04846451 257.80610734 9.80687515 340.73948807 171 1183 C171.44765717 1184.373909 171.44765717 1184.373909 171.90435791 1185.77557373 C201.68650457 1277.09774867 236.41059148 1366.87053119 288 1483 C288.54624023 1484.20172852 288.54624023 1484.20172852 289.10351562 1485.42773438 C299.1646218 1507.54102378 309.5396226 1529.48332224 320.22364807 1551.30201721 C323.01459435 1557.00992129 325.73288908 1562.75072951 328.4375 1568.5 C331.7903007 1575.60148095 335.34495378 1582.56860926 339.04516602 1589.49487305 C342.61845776 1596.20437563 346.0024792 1603.00027672 349.375 1609.8125 C353.80381862 1618.73142461 358.38596997 1627.53544338 363.20092773 1636.25146484 C367.33281446 1643.73829089 371.34120397 1651.28567506 375.33340454 1658.84747314 C382.1250638 1671.70392513 389.07691544 1684.44742546 396.31494141 1697.05957031 C398.1381844 1700.24113198 399.95057273 1703.42872491 401.76171875 1706.6171875 C432.91090747 1761.39599824 466.12844315 1814.84516851 500.78051758 1867.47705078 C502.05839526 1869.41897987 503.33507634 1871.36169687 504.6105957 1873.30517578 C513.73724055 1887.25511459 513.73724055 1887.25511459 523.39575195 1900.83740234 C525.77074315 1904.03899601 528.00985 1907.3283907 530.25 1910.625 C539.20719878 1923.71967635 548.41604908 1936.63128497 557.7265625 1949.4765625 C559.87691382 1952.44366447 562.01730316 1955.41750504 564.1484375 1958.3984375 C571.30048778 1968.38672202 578.66659959 1978.19293256 586.13671875 1987.9453125 C589.57966209 1992.44128146 592.98584568 1996.96340651 596.375 2001.5 C604.63187119 2012.53848026 613.08509883 2023.41642746 621.61767578 2034.24267578 C622.97656619 2035.97020902 624.33083709 2037.70125465 625.68359375 2039.43359375 C632.67676692 2048.38139634 639.81345488 2057.20699509 647 2066 C648.24136719 2067.51980469 648.24136719 2067.51980469 649.5078125 2069.0703125 C650.97030283 2070.85893307 652.43379755 2072.64673301 653.8984375 2074.43359375 C655.32316165 2076.17345205 656.74494709 2077.91572016 658.1640625 2079.66015625 C662.68546267 2085.21205222 667.27080055 2090.7029493 671.90917969 2096.15698242 C674.85934093 2099.63204115 677.75649915 2103.14435174 680.625 2106.6875 C684.20049415 2111.08370366 687.94091209 2115.28985859 691.7578125 2119.4765625 C694.04515904 2122.05082358 696.21548271 2124.69289489 698.375 2127.375 C702.53562075 2132.51758543 706.94356304 2137.37451737 711.4375 2142.22265625 C714.09866345 2145.10693553 716.68699008 2148.04337133 719.2578125 2151.0078125 C721.31500399 2153.36020635 723.40596915 2155.68034966 725.5 2158 C728.15113994 2160.93678465 730.78290171 2163.88602542 733.375 2166.875 C738.14410465 2172.34576603 743.08010913 2177.66525667 748 2183 C748.48662109 2183.52787109 748.97324219 2184.05574219 749.47460938 2184.59960938 C751.964349 2187.29984218 754.45588403 2189.99839911 756.94921875 2192.6953125 C759.01944534 2194.93544826 761.08392088 2197.18070401 763.14453125 2199.4296875 C768.02283297 2204.74717362 772.92840509 2209.99104214 778.07998657 2215.04727173 C779.88929936 2216.88741315 781.57279352 2218.78128771 783.24755859 2220.74365234 C786.90033227 2224.94450519 790.76717734 2228.87871513 794.7265625 2232.7890625 C795.43726898 2233.49598236 796.14797546 2234.20290222 796.88021851 2234.9312439 C799.12603853 2237.16496922 801.37509027 2239.39539457 803.625 2241.625 C806.5992943 2244.57257909 809.57017643 2247.52353726 812.5390625 2250.4765625 C813.21313141 2251.14233307 813.88720032 2251.80810364 814.58169556 2252.49404907 C817.36133151 2255.25928708 819.98927376 2257.98681039 822.46630859 2261.03271484 C825.08337114 2264.09763854 827.87397451 2266.58180635 830.9296875 2269.19189453 C834.27806046 2272.11619289 837.37840296 2275.27501734 840.5 2278.4375 C841.17998047 2279.12126709 841.85996094 2279.80503418 842.56054688 2280.50952148 C845.43225143 2283.39737773 848.29788438 2286.29123075 851.1640625 2289.18457031 C853.27392787 2291.31265725 855.38689645 2293.43762917 857.5 2295.5625 C858.13357422 2296.20437256 858.76714844 2296.84624512 859.41992188 2297.50756836 C863.22714513 2301.33526593 867.15325849 2304.9586266 871.2512207 2308.47387695 C874.44837282 2311.26396461 877.3544854 2314.33703906 880.3125 2317.375 C883.0879485 2320.08590318 885.97290598 2322.61698461 888.90332031 2325.15722656 C892.30511598 2328.14706746 895.58538761 2331.26289919 898.875 2334.375 C904.84628301 2339.99836086 910.87502079 2345.5439605 917 2351 C918.66745109 2352.49912796 920.33410291 2353.99914535 922 2355.5 C922.82628906 2356.2425 923.65257813 2356.985 924.50390625 2357.75 C926.16222983 2359.24482689 927.81592441 2360.7448058 929.46484375 2362.25 C933.67765308 2366.08345683 937.94044969 2369.79936546 942.375 2373.375 C946.38826284 2376.61952517 950.22415384 2379.98747183 954 2383.5 C958.52991325 2387.71023142 963.20292164 2391.67637846 968.01953125 2395.5546875 C971.57291194 2398.47004309 975.03710062 2401.47826749 978.5 2404.5 C983.60289833 2408.9458564 988.75291536 2413.3126403 994.01171875 2417.57421875 C997.02320636 2420.01883811 1000.01749418 2422.48320479 1003.0090332 2424.95214844 C1016.54927555 2436.12667994 1030.15044856 2447.21043886 1044 2458 C1044.70946777 2458.55333008 1045.41893555 2459.10666016 1046.14990234 2459.67675781 C1055.10917752 2466.66287077 1064.07730501 2473.63756523 1073.09863281 2480.54345703 C1074.50246453 2481.61886279 1075.90531187 2482.69555383 1077.30761719 2483.77294922 C1087.93878723 2491.93829554 1098.63861156 2499.97745284 1109.53515625 2507.78515625 C1114.24563357 2511.16434389 1118.90402581 2514.61216276 1123.5625 2518.0625 C1131.55013775 2523.96707599 1139.62168514 2529.73947353 1147.76074219 2535.43310547 C1150.15752363 2537.11022532 1152.55153251 2538.79125553 1154.9453125 2540.47265625 C1156.65092299 2541.66943999 1158.35665012 2542.86605751 1160.0625 2544.0625 C1160.816521 2544.59166016 1161.57054199 2545.12082031 1162.34741211 2545.66601562 C1176.331589 2555.45626804 1190.44759874 2565.05578382 1204.58984375 2574.61572266 C1206.44415892 2575.87024619 1208.2973535 2577.1264277 1210.14941406 2578.38427734 C1220.99056233 2585.74637821 1231.89703322 2592.90926223 1243.13916016 2599.64575195 C1246.84398737 2601.87696699 1250.42401664 2604.25522481 1254 2606.6875 C1264.52253954 2613.79306487 1275.4097145 2620.32466893 1286.24890137 2626.9317627 C1287.98226239 2627.98917938 1289.71447605 2629.04844867 1291.44628906 2630.10839844 C1315.20620275 2644.64870238 1339.18949101 2658.79857172 1363.42236328 2672.53759766 C1366.1365067 2674.07744603 1368.84757079 2675.62263404 1371.55859375 2677.16796875 C1383.33909238 2683.86967867 1395.19944307 2690.40674135 1407.1328125 2696.83203125 C1410.84623808 2698.83208203 1414.550016 2700.8477062 1418.2421875 2702.88671875 C1432.55193376 2710.78207733 1447.05857851 2718.2685721 1461.60420227 2725.71664429 C1466.47781786 2728.21395135 1471.34128664 2730.73014764 1476.19921875 2733.2578125 C1489.38125261 2740.11212487 1502.5974096 2746.83994101 1516.0390625 2753.17578125 C1520.42536948 2755.24399416 1524.79145114 2757.3513352 1529.1484375 2759.48046875 C1546.64865447 2768.02622975 1564.27617357 2776.23899292 1582.04101562 2784.21972656 C1585.79646638 2785.90704761 1589.54689044 2787.60525247 1593.296875 2789.3046875 C1670.39787067 2824.16866957 1749.343307 2854.77453132 1829.31445312 2882.37939453 C1833.11534012 2883.69202644 1836.91176569 2885.01701465 1840.70690918 2886.34614563 C1918.22426138 2913.46707265 1997.42225258 2935.81363039 2077 2956 C2078.04762512 2956.26576843 2079.09525024 2956.53153687 2080.17462158 2956.80535889 C2164.62468121 2978.18789634 2250.05465429 2995.79534123 2336 3010 C2337.91477142 3010.31747192 2337.91477142 3010.31747192 2339.8682251 3010.64135742 C2415.79753064 3023.21404781 2492.07482102 3033.30214229 2775.0625 3055.75 C2775.72995491 3055.77989265 2776.39740982 3055.80978531 2777.08509064 3055.8405838 C2786.3889615 3056.25542294 2795.69386551 3056.63968227 2805 3057 C2806.80747208 3057.07009277 2806.80747208 3057.07009277 2808.65145874 3057.14160156 C2827.68771499 3057.86758402 2846.71983077 3058.27425621 2865.76733398 3058.55224609 C2869.25511195 3058.60417804 2872.74277962 3058.66119982 2876.23046875 3058.71875 C2877.78836372 3058.73911316 2877.78836372 3058.73911316 2879.37773132 3058.7598877 C2885.6327348 3058.86585872 2891.78661698 3059.26835348 2898 3060 C2898 3060.66 2898 3061.32 2898 3062 C2897.27055679 3062.00586624 2896.54111359 3062.01173248 2895.78956604 3062.01777649 C2807.62846948 3062.75230731 2719.50638525 3065.83013641 1985 3164 C1983.97251648 3164.24665405 1982.94503296 3164.49330811 1981.88641357 3164.74743652 C1967.51082002 3168.20106106 1953.15351174 3171.72542029 1938.80786133 3175.30126953 C1936.13367536 3175.96673517 1933.45861585 3176.6285485 1930.78320312 3177.2890625 C1878.78979391 3190.14312678 1827.21122215 3204.83781975 1776.15466309 3221.00250244 C1772.94443008 3222.01757109 1769.73266377 3223.02765539 1766.52050781 3224.03662109 C1702.85275447 3244.05315691 1640.01158914 3266.32828746 1578 3291 C1577.20398376 3291.3166864 1576.40796753 3291.6333728 1575.58782959 3291.95965576 C1532.30341893 3309.19995379 1489.52868867 3327.72785874 1447.31835938 3347.45410156 C1443.86835882 3349.06132666 1440.41098398 3350.65194721 1436.953125 3352.2421875 C1418.21089603 3360.89912582 1399.71015531 3370.03696713 1381.24025726 3379.25693512 C1379.28114006 3380.23446226 1377.32134239 3381.21061278 1375.36138916 3382.1864624 C1360.18734979 3389.74559535 1345.16437967 3397.51895097 1330.32592773 3405.72265625 C1326.94728988 3407.57812316 1323.54369534 3409.38436039 1320.1328125 3411.1796875 C1307.52203311 3417.82819486 1295.03919044 3424.59676479 1282.76391602 3431.85327148 C1275.75663289 3435.99396549 1268.68069826 3439.99092945 1261.5625 3443.9375 C1236.5287355 3457.86547534 1212.16450012 3473.03253764 1187.9375 3488.3125 C1187.27379395 3488.73104248 1186.61008789 3489.14958496 1185.92626953 3489.58081055 C1170.94038843 3499.07668913 1156.13344116 3508.84304576 1141.375 3518.6875 C1140.45412598 3519.30150665 1139.53325195 3519.91551331 1138.58447266 3520.54812622 C1119.83386094 3533.05700406 1101.28806902 3545.80396995 1083.0546875 3559.05859375 C1079.96362694 3561.3053839 1076.85882274 3563.53138557 1073.74316406 3565.74389648 C1059.24585023 3576.03985339 1045.0021968 3586.67346717 1030.91650391 3597.52441406 C1029.1274425 3598.9018774 1027.33580198 3600.27588885 1025.54296875 3601.6484375 C1014.21831398 3610.32418871 1003.01535475 3619.13708154 991.96606445 3628.16113281 C987.64443179 3631.68443561 983.27768617 3635.14128858 978.875 3638.5625 C973.46127533 3642.77821235 968.22619805 3647.1703142 963.03857422 3651.66040039 C959.56861082 3654.66285959 956.06419865 3657.60898089 952.5 3660.5 C946.52523194 3665.35668281 940.6868059 3670.36450238 934.85888672 3675.39550781 C932.96089714 3677.03375151 931.06052614 3678.669206 929.16015625 3680.3046875 C922.4912726 3686.05416182 915.89455569 3691.86368906 909.40234375 3697.8125 C907.33319448 3699.6966034 905.24146074 3701.54454747 903.125 3703.375 C898.97297062 3706.98250093 894.94746934 3710.72220879 890.9140625 3714.4609375 C887.675554 3717.46066196 884.41716752 3720.43399702 881.125 3723.375 C872.16753188 3731.41037581 863.30114094 3739.56952368 854.87229919 3748.16014099 C853.15825163 3749.8444903 851.39819659 3751.39618753 849.56274414 3752.94555664 C843.57696573 3758.15378309 838.03529568 3763.82073542 832.43359375 3769.43359375 C831.228829 3770.63768327 830.02391598 3771.84162444 828.81886292 3773.04542542 C826.30510542 3775.55771625 823.79314563 3778.0717869 821.2824707 3780.5871582 C818.08300058 3783.79232496 814.87906082 3786.99298016 811.67375088 3790.19230556 C809.18820855 3792.6742143 806.70507758 3795.15852464 804.2226429 3797.64354134 C803.04296062 3798.82388515 801.86255046 3800.003502 800.68136406 3801.18234062 C795.06881772 3806.78617431 789.48437606 3812.37516712 784.35047913 3818.42933655 C781.63975079 3821.58202647 778.6012568 3824.41456574 775.625 3827.3125 C772.92699678 3830.07474139 770.4108158 3832.94677528 767.8828125 3835.86328125 C764.0301767 3840.23546337 759.9758192 3844.42198325 755.9609375 3848.64453125 C752.07371429 3852.74937892 748.28467748 3856.91577988 744.58105469 3861.18701172 C742.47353952 3863.60368985 740.30075768 3865.95726063 738.125 3868.3125 C734.81663086 3871.93523905 731.63987642 3875.61692891 728.5625 3879.4375 C725.34054925 3883.43226434 721.99322017 3887.24531667 718.5 3891 C714.28974225 3895.52988654 710.3236197 3900.20292392 706.4453125 3905.01953125 C703.52995582 3908.57291328 700.52170182 3912.03707239 697.5 3915.5 C692.21084148 3921.5718387 687.06117829 3927.73616549 682 3934 C680.98234439 3935.2478638 679.96407255 3936.4952252 678.9453125 3937.7421875 C672.31852856 3945.86054004 665.77948353 3954.04036403 659.32958984 3962.29980469 C657.56906782 3964.55104879 655.8007559 3966.79611174 654.0324707 3969.04125977 C652.18679118 3971.38613379 650.34503774 3973.73407354 648.50390625 3976.08251953 C647.46302976 3977.40963705 646.42130672 3978.73609089 645.37890625 3980.06201172 C637.53059892 3990.05138441 629.87521169 4000.15985942 622.37109375 4010.41015625 C619.26196607 4014.6547143 616.10620675 4018.86234045 612.9375 4023.0625 C602.23346007 4037.28844571 591.96435794 4051.82011383 581.79492188 4066.43115234 C580.06608475 4068.90542115 578.32410576 4071.36984003 576.578125 4073.83203125 C546.1578225 4116.90837859 517.95616323 4161.69280662 491 4207 C490.49968262 4207.83853516 489.99936523 4208.67707031 489.48388672 4209.54101562 C465.56123122 4249.65572992 443.03815252 4290.56735545 421.54199219 4332.02929688 C419.89947817 4335.1936589 418.25082321 4338.35477452 416.6015625 4341.515625 C404.63844341 4364.47120789 393.0522334 4387.59193643 382 4411 C381.42454675 4412.21617781 380.84902294 4413.43232224 380.2734375 4414.6484375 C350.31133253 4477.98982478 323.06602287 4542.57139296 298 4608 C297.68909424 4608.81132385 297.37818848 4609.62264771 297.05786133 4610.45855713 C262.54246668 4700.63442007 232.7179995 4792.55961478 196.84844971 4922.81585693 C196.01949887 4925.92682278 195.18747746 4929.03695416 194.35498047 4932.14697266 C173.07804848 5011.7724391 155.51889086 5092.30733692 122 5271 C121.82159954 5272.0670945 121.82159954 5272.0670945 121.63959503 5273.15574646 C109.21723881 5347.48963003 98.63894512 5422.13251479 90 5497 C89.90809891 5497.79536667 89.81619781 5498.59073334 89.72151184 5499.41020203 C79.68661017 5586.32947907 71.7800988 5673.53957053 58 5941 C57.01 5941 56.02 5941 55 5941 C54.98604691 5940.43279236 54.97209381 5939.86558472 54.9577179 5939.28118896 C52.60585896 5845.2508458 47.06508721 5751.29128192 -31.27520752 5127.72296143 C-31.96861632 5124.1612051 -32.65541085 5120.59825243 -33.33935547 5117.03466797 C-41.63936822 5073.82583582 -51.24278208 5030.8992793 -61 4988 C-61.23607594 4986.96198116 -61.23607594 4986.96198116 -61.47692108 4985.90299225 C-74.68633617 4927.86512755 -89.63259563 4870.22571453 -106 4813 C-106.32937561 4811.84771912 -106.65875122 4810.69543823 -106.99810791 4809.50823975 C-117.40388942 4773.15395086 -128.47852373 4737.03386974 -140.02990723 4701.02813721 C-140.92780831 4698.22534581 -141.82194332 4695.42139758 -142.71386719 4692.61669922 C-150.67602012 4667.57996129 -159.20204872 4642.75484193 -168 4618 C-168.33471313 4617.0577356 -168.66942627 4616.11547119 -169.01428223 4615.14465332 C-184.08845479 4572.74572928 -200.02852243 4530.67679303 -217 4489 C-217.25291809 4488.37855103 -217.50583618 4487.75710205 -217.76641846 4487.11682129 C-231.20012792 4454.13476342 -245.3989991 4421.48012397 -260 4389 C-260.3239978 4388.27810486 -260.64799561 4387.55620972 -260.98181152 4386.81243896 C-270.8536068 4364.82076071 -281.21645549 4343.09837448 -291.84188843 4321.46150208 C-294.34457656 4316.35827116 -296.79877325 4311.23445307 -299.21801758 4306.09106445 C-315.64806268 4271.18174139 -333.82764193 4236.84700576 -352.96875 4203.3515625 C-355.49464853 4198.91996374 -357.937183 4194.44857661 -360.35498047 4189.95727539 C-366.8561353 4177.88167976 -373.79731767 4166.09347402 -380.83325195 4154.32356262 C-383.33973965 4150.12415451 -385.81428325 4145.90696619 -388.2734375 4141.6796875 C-396.66903834 4127.25260556 -405.26286564 4112.98863332 -414.18798828 4098.87988281 C-415.97375523 4096.04171158 -417.73832153 4093.19151702 -419.49609375 4090.3359375 C-428.90651786 4075.07730065 -438.79654311 4060.1668211 -448.78746033 4045.28486633 C-451.96997558 4040.54288882 -455.13685025 4035.79083187 -458.29296875 4031.03125 C-471.94354213 4010.45363587 -485.90388311 3990.12393504 -500.43652344 3970.15625 C-502.01066599 3967.98529013 -503.57333889 3965.80651629 -505.1328125 3963.625 C-512.96627661 3952.68181119 -521.07164857 3941.96416656 -529.25683594 3931.28222656 C-531.48209447 3928.36882086 -533.68159363 3925.43745942 -535.875 3922.5 C-546.66006288 3908.07906365 -557.77117982 3893.90934395 -569.16333008 3879.96386719 C-572.66810441 3875.6657842 -576.10134894 3871.3197095 -579.5 3866.9375 C-583.91763868 3861.25710029 -588.56473984 3855.80733489 -593.3046875 3850.39428711 C-596.43777692 3846.81407971 -599.5073763 3843.19967215 -602.5 3839.5 C-607.09611323 3833.82837947 -611.88032735 3828.33079709 -616.67578125 3822.828125 C-618.81415274 3820.37256691 -620.93733 3817.90555446 -623.04296875 3815.421875 C-628.70827671 3808.7418433 -634.50356611 3802.22524739 -640.49169922 3795.83227539 C-643.80680775 3792.29298327 -647.04391017 3788.70471329 -650.21484375 3785.03515625 C-653.91288555 3780.81922676 -657.73447829 3776.71312568 -661.53515625 3772.58984375 C-662.96260485 3771.04058621 -664.38775404 3769.48924282 -665.8125 3767.9375 C-668.86530188 3764.61598032 -671.93140403 3761.30692479 -675 3758 C-675.8672168 3757.06293213 -675.8672168 3757.06293213 -676.75195312 3756.10693359 C-685.85919868 3746.28133579 -695.19088023 3736.71416099 -704.73022461 3727.30664062 C-709.16440683 3722.91694852 -713.44673742 3718.48852102 -717.46411133 3713.71191406 C-719.53129902 3711.40780977 -721.82197673 3709.4607944 -724.2265625 3707.51953125 C-726.61622528 3705.4720008 -728.78201993 3703.23258373 -731 3701 C-731.90274658 3700.0920166 -732.80549316 3699.1840332 -733.7355957 3698.24853516 C-734.20991531 3697.77098785 -734.68423492 3697.29344055 -735.17292786 3696.80142212 C-737.31967149 3694.64109936 -739.46925345 3692.48360912 -741.61889648 3690.32617188 C-742.74350194 3689.1965408 -743.86720782 3688.0660134 -744.98999023 3686.93457031 C-750.64192499 3681.24035176 -756.27432953 3675.60560223 -762.38354492 3670.39599609 C-764.53579972 3668.53727491 -766.52058923 3666.54031571 -768.5 3664.5 C-771.74256259 3661.21896632 -775.07047022 3658.14540004 -778.5703125 3655.14453125 C-781.9454493 3652.16551179 -785.21749566 3649.08038068 -788.5 3646 C-793.58690217 3641.23470137 -798.69394242 3636.52176804 -804 3632 C-806.27197014 3630.06382881 -808.54276695 3628.12629328 -810.8125 3626.1875 C-811.41884277 3625.67002197 -812.02518555 3625.15254395 -812.64990234 3624.61938477 C-816.39109382 3621.41472075 -820.06132289 3618.14775173 -823.6875 3614.8125 C-827.99260136 3610.86459046 -832.43554449 3607.15152419 -836.98046875 3603.484375 C-840.5665464 3600.5338635 -844.064869 3597.49181238 -847.5625 3594.4375 C-852.49984421 3590.13215067 -857.48764979 3585.92818106 -862.6328125 3581.87109375 C-865.15338359 3579.87876116 -867.64116222 3577.85042625 -870.125 3575.8125 C-872.08327567 3574.20826287 -874.0415804 3572.60406141 -876 3571 C-876.60650391 3570.50306641 -877.21300781 3570.00613281 -877.83789062 3569.49414062 C-885.65596981 3563.09469595 -893.51153829 3556.76999113 -901.546875 3550.64453125 C-904.09294256 3548.70214735 -906.620247 3546.73732155 -909.140625 3544.76171875 C-919.16432126 3536.90722252 -929.3237884 3529.2688298 -939.60449219 3521.75439453 C-942.8029528 3519.41194264 -945.9906237 3517.05502609 -949.17871094 3514.69848633 C-962.20422699 3505.07609312 -975.25238971 3495.48749425 -988.63208008 3486.36108398 C-992.50631728 3483.71825543 -996.36171158 3481.05143456 -1000.19921875 3478.35546875 C-1014.59639846 3468.24911444 -1029.21833259 3458.5341312 -1044 3449 C-1045.05509766 3448.31905273 -1046.11019531 3447.63810547 -1047.19726562 3446.93652344 C-1054.44745272 3442.26353379 -1061.71707856 3437.6217863 -1069 3433 C-1069.96019043 3432.38979004 -1070.92038086 3431.77958008 -1071.90966797 3431.15087891 C-1088.78603701 3420.44689888 -1105.93374971 3410.2201246 -1123.15570068 3400.08587646 C-1124.88143699 3399.06980688 -1126.60604381 3398.05181961 -1128.33056641 3397.03369141 C-1158.43329342 3379.26838114 -1189.14293704 3362.55742711 -1220.171875 3346.47070312 C-1222.9521656 3345.02487521 -1225.72692667 3343.56899124 -1228.5 3342.109375 C-1251.45911974 3330.03607973 -1274.62153856 3318.45882072 -1298.20924377 3307.66149902 C-1303.13383152 3305.40499612 -1308.04249082 3303.1153472 -1312.94921875 3300.8203125 C-1403.54959067 3258.51025326 -1497.5468596 3222.86480463 -1853 3126 C-1854.10494812 3125.76861328 -1855.20989624 3125.53722656 -1856.34832764 3125.29882812 C-1890.76544996 3118.11049508 -1925.33067602 3111.84264999 -1960 3106 C-1961.14964233 3105.80599609 -1962.29928467 3105.61199219 -1963.48376465 3105.41210938 C-2049.49646757 3090.92883932 -2136.1249226 3080.25759898 -2390.9375 3062.3125 C-2391.693904 3062.28168461 -2392.450308 3062.25086922 -2393.22963333 3062.21912003 C-2428.89236822 3060.77096424 -2464.55195704 3059.88982189 -2500.24121094 3059.46777344 C-2503.61317519 3059.42708411 -2506.98509479 3059.38318411 -2510.35701942 3059.33935261 C-2540.22063296 3058.95258379 -2570.05989172 3058.99395732 -2599.92333984 3059.37231445 C-2603.36602833 3059.41587237 -2606.80873056 3059.45754256 -2610.25146484 3059.49731445 C-2629.21118854 3059.7165818 -2648.16622332 3060.01065314 -2667.12109375 3060.5 C-2668.32127577 3060.53083837 -2668.32127577 3060.53083837 -2669.54570389 3060.56229973 C-2683.0357643 3060.91315441 -2696.51898632 3061.38927964 -2710 3062 C-2709.67 3061.01 -2709.34 3060.02 -2709 3059 C-2707.85025696 3058.80329712 -2706.70051392 3058.60659424 -2705.51593018 3058.40393066 C-2676.50584754 3053.43457767 -2647.52030288 3048.33442992 -2618.546875 3043.15625 C-2617.69835535 3043.00460734 -2616.84983571 3042.85296469 -2615.97560334 3042.6967268 C-2605.32811879 3040.79367868 -2594.68103284 3038.88840549 -2584.03404659 3036.98257184 C-2567.13970549 3033.95862954 -2550.24445043 3030.93979505 -2533.34926248 3027.92058849 C-2530.56323556 3027.42270453 -2527.77721763 3026.92477028 -2524.9912014 3026.42682648 C-2496.53133012 3021.340369 -2468.0680199 3016.27391812 -2439.59838104 3011.24237442 C-2434.94851486 3010.42056074 -2430.29872248 3009.59832974 -2425.64892578 3008.77612305 C-2424.28381992 3008.53473681 -2424.28381992 3008.53473681 -2422.89113617 3008.28847408 C-2420.16049401 3007.80561438 -2417.42985605 3007.32273094 -2414.69921875 3006.83984375 C-2413.81193336 3006.6829476 -2412.92464798 3006.52605145 -2412.01047516 3006.36440086 C-2303.30076295 2987.14023573 -2194.61708818 2967.74987514 -2086.10275936 2947.44878387 C-2077.93292211 2945.92038631 -2069.76207717 2944.39769914 -2061.58936214 2942.88476467 C-2010.87109216 2933.49559604 -1960.30110691 2923.37699738 -1909.74377441 2913.16009521 C-1905.24151981 2912.25040783 -1900.73883543 2911.3428765 -1896.23590374 2910.43654728 C-1818.68510086 2894.8270312 -1741.40453713 2877.83267642 -1115.60400391 2663.38964844 C-1113.75089603 2662.40072194 -1111.89623626 2661.41470109 -1110.04052734 2660.43066406 C-1095.97189002 2652.96833995 -1082.10128925 2645.24406808 -1068.3828125 2637.15625 C-1064.04069895 2634.59833941 -1059.66196301 2632.12209442 -1055.25 2629.6875 C-1009.29945069 2604.12884449 -965.41861621 2573.9917511 -923 2543 C-922.23236328 2542.44103027 -921.46472656 2541.88206055 -920.67382812 2541.30615234 C-909.64441722 2533.26972661 -898.78352246 2525.04377581 -888.05322266 2516.61230469 C-886.14663337 2515.11514468 -884.23624703 2513.62301616 -882.32421875 2512.1328125 C-874.0659117 2505.68643028 -865.92184598 2499.10428967 -857.80859375 2492.4765625 C-856.2076452 2491.16952459 -854.60402024 2489.86576644 -853 2488.5625 C-847.55863012 2484.13347801 -842.18350605 2479.63322784 -836.83959961 2475.08764648 C-833.38821312 2472.15691459 -829.8976381 2469.28270769 -826.375 2466.4375 C-821.61479947 2462.56420728 -817.07195216 2458.49240008 -812.5546875 2454.33984375 C-810.37302185 2452.34165152 -808.16988691 2450.37851111 -805.9375 2448.4375 C-802.10637612 2445.10574868 -798.33173656 2441.71400617 -794.5625 2438.3125 C-792.08734669 2436.07882507 -789.60631688 2433.85182284 -787.125 2431.625 C-773.01622774 2418.91834175 -758.87961164 2406.16591721 -745.625 2392.5625 C-743.66417015 2390.64835658 -741.70993419 2388.89090331 -739.625 2387.125 C-732.72168548 2381.14126396 -726.42302373 2374.48827941 -720 2368 C-704.58057878 2352.42392283 -704.58057878 2352.42392283 -697 2346 C-685.92533294 2336.05501782 -675.40650383 2325.51158866 -664.875 2315 C-664.24067047 2314.36825867 -663.60634094 2313.73651733 -662.95278931 2313.08563232 C-653.98909897 2304.16808684 -653.98909897 2304.16808684 -645.53076172 2294.77587891 C-642.68143251 2291.47029347 -639.63284817 2288.34817727 -636.625 2285.1875 C-631.54264462 2279.810985 -626.71605846 2274.3612441 -622.10546875 2268.57421875 C-619.82799154 2265.78969652 -617.43687992 2263.14586197 -615 2260.5 C-610.10493872 2255.17368912 -605.5382098 2249.63059305 -601 2244 C-599.5424923 2242.22848705 -598.08415078 2240.45765983 -596.625 2238.6875 C-591.84750257 2232.84558604 -587.18310545 2226.91943292 -582.54052734 2220.97021484 C-580.91330052 2218.8891181 -579.27911192 2216.81360575 -577.64453125 2214.73828125 C-570.04902558 2205.06808711 -562.7371411 2195.2329265 -555.59570312 2185.22363281 C-554.03048314 2183.04247865 -552.4483872 2180.87480405 -550.859375 2178.7109375 C-542.50994867 2167.31691195 -534.65842599 2155.62165733 -526.87646484 2143.83447266 C-525.17338547 2141.26190546 -523.45959866 2138.6971051 -521.73828125 2136.13671875 C-514.6215377 2125.54925934 -507.74325406 2114.82888424 -501 2104 C-500.08710205 2102.53796143 -500.08710205 2102.53796143 -499.15576172 2101.04638672 C-489.08464135 2084.89458991 -479.38828152 2068.55760647 -470 2052 C-469.40977051 2050.9598877 -468.81954102 2049.91977539 -468.21142578 2048.84814453 C-442.48154864 2003.41450492 -418.11563265 1956.95079434 -396.53759766 1909.38720703 C-394.94442198 1905.87756598 -393.33787213 1902.37423885 -391.73046875 1898.87109375 C-355.22771473 1819.09996341 -324.34180827 1736.97872595 -296 1654 C-295.67986938 1653.06365723 -295.35973877 1652.12731445 -295.02990723 1651.16259766 C-270.18588049 1578.43368709 -248.57942607 1504.59226802 -228.87976074 1430.31585693 C-228.0459197 1427.17307336 -227.20933192 1424.03103389 -226.37207031 1420.88916016 C-209.53457052 1357.61112721 -194.07495275 1293.94798051 -180 1230 C-179.85537827 1229.34343163 -179.71075653 1228.68686325 -179.56175232 1228.01039886 C-174.94095427 1207.02817741 -170.43022962 1186.0232522 -166 1165 C-165.85162186 1164.29624237 -165.70324371 1163.59248474 -165.55036926 1162.86740112 C-147.14755173 1075.55572434 -130.71590289 987.82961376 -5.6875 58.25 C-5.50982275 56.51963375 -5.50982275 56.51963375 -5.32855606 54.75431061 C-4.55292719 47.19592182 -3.78110592 39.63715147 -3.01171875 32.078125 C-2.91444363 31.12510624 -2.8171685 30.17208748 -2.71694565 29.19018936 C-1.72552569 19.46651986 -0.7517139 9.74585715 0 0 Z " fill="#B2021F" transform="translate(2710,0)"/>
<path d="M0 0 C0.66 0 1.32 0 2 0 C2 52.8 2 105.6 2 160 C1.67 160 1.34 160 1 160 C-0.25534345 135.45688033 -0.31995178 110.89113411 -0.53222656 86.32208252 C-0.58316495 80.52198738 -0.63846676 74.72193383 -0.69335938 68.921875 C-0.7997509 57.61461916 -0.90144138 46.30732664 -1 35 C-1.66 35.99 -2.32 36.98 -3 38 C-2.3087385 25.30261765 -1.20245437 12.65815137 0 0 Z " fill="#CA5265" transform="translate(2710,0)"/>
<path d="M0 0 C10.38837648 -0.02324128 20.77674671 -0.04097493 31.16514397 -0.05181217 C35.98966266 -0.05701531 40.81416347 -0.06406597 45.63867188 -0.07543945 C50.30061136 -0.08636004 54.96253372 -0.09229616 59.62448502 -0.09487724 C61.39693598 -0.09671503 63.16938607 -0.10030359 64.94182968 -0.10573006 C73.69598436 -0.13144878 82.30068971 -0.12136515 91 1 C91 1.66 91 2.32 91 3 C66.91 3 42.82 3 18 3 C18 2.34 18 1.68 18 1 C12.06 1 6.12 1 0 1 C0 0.67 0 0.34 0 0 Z " fill="#CC5E6C" transform="translate(5517,3059)"/>
<path d="M0 0 C0.66 0 1.32 0 2 0 C2.22374275 19.34131807 1.55962355 38.66917367 1 58 C0.01 58 -0.98 58 -2 58 C-2.14524585 53.14778433 -2.28750675 48.29549261 -2.42724609 43.44311523 C-2.47496958 41.79953774 -2.52344633 40.15598191 -2.57275391 38.51245117 C-2.88739344 28.00413301 -3.07065859 17.513409 -3 7 C-2.67 7 -2.34 7 -2 7 C-2 10.96 -2 14.92 -2 19 C-1.34 19 -0.68 19 0 19 C0 12.73 0 6.46 0 0 Z " fill="#CE6472" transform="translate(2767,5883)"/>
<path d="M0 0 C7.92 0.33 15.84 0.66 24 1 C24 1.33 24 1.66 24 2 C11.625 2.495 11.625 2.495 -1 3 C-0.67 2.01 -0.34 1.02 0 0 Z " fill="#E2A1AC" transform="translate(1,3059)"/>
<path d="M0 0 C0.33 0 0.66 0 1 0 C1.24887295 2.10192697 1.4734719 4.20673964 1.6875 6.3125 C1.81511719 7.48425781 1.94273437 8.65601563 2.07421875 9.86328125 C2 13 2 13 -1 16 C-0.67 10.72 -0.34 5.44 0 0 Z " fill="#CC5B6C" transform="translate(2708,22)"/>
</svg>
